<?xml version="1.0" encoding="utf-8"?>
<svg version="1.1" xmlns="http://www.w3.org/2000/svg" x="0px" y="0px" viewBox="0 0 250 250" xml:space="preserve">
  <g id="Simulator-Logo" transform="translate(-105, -5)">
    
    <g fill="none" stroke-width="3" stroke-linecap="round" stroke-linejoin="round">
      <path d="M 170,40 L 190,40 C 205,40 215,50 215,60 C 215,70 205,80 190,80 L 170,80 Z" />
      <path d="M 170,120 L 190,120 C 205,120 215,130 215,140 C 215,150 205,160 190,160 L 170,160 Z" />
      <path d="M 170,60 L 150,60 L 150,90 L 135,90 L 131,80 L 127,110 L 123,70 L 119,100 L 115,90 L 100,90" />
      <path d="M 170,140 L 150,140 L 150,110 L 135,110" />
      <path d="M 215,60 L 235,60 L 265,95 L 235,125 L 210,100 L 235,75 L 255,95" />
      <path d="M 215,140 L 235,140 L 285,90 L 310,115 L 285,140 L 265,120" />
      <path d="M 310,60 C 315,60 325,40 345,40 C 360,40 365,50 370,60 C 365,70 360,80 345,80 C 325,80 315,60 310,60 Z" />
      <path d="M 310,140 C 315,140 325,120 345,120 C 360,120 365,130 370,130 C 365,140 360,150 345,150 C 325,150 315,140 310,140 Z" />
      <path d="M 385,90 L 385,110 L 405,100 Z" />
      <circle cx="410" cy="100" r="3" />
      <path d="M 370,60 L 390,60 L 390,80 L 380,80 L 376,75 L 372,95 L 368,65 L 364,85 L 360,80 L 345,80" />
      <path d="M 370,130 L 390,130 L 390,115" />
      <path d="M 413,100 L 430,100" />
      
      <animate attributeName="stroke" dur="10s" repeatCount="indefinite"
        values="#00f2fe; #4facfe; #00ff87; #fed373; #ff0844; #00f2fe" />
    </g>

    <g>
      <circle cx="255" cy="95" r="3.5" />
      <circle cx="265" cy="120" r="3.5" />
      <text x="250" y="200" text-anchor="middle" font-family="'Segoe UI', -apple-system, Roboto, sans-serif" font-weight="800" font-size="25px" letter-spacing="1px">
        LOGIC SIMULATOR
      </text>

      <animate attributeName="fill" dur="10s" repeatCount="indefinite"
        values="#00f2fe; #4facfe; #00ff87; #fed373; #ff0844; #00f2fe" />
    </g>

    <g font-family="'Segoe UI', -apple-system, Roboto, sans-serif" font-weight="800" font-size="16px" letter-spacing="3px">
      
      <text x="250" y="230" text-anchor="middle" fill="#9d4edd">
        BY AALIYAN
        <animate attributeName="dx" dur="2s" repeatCount="indefinite"
          values="0; 0; 4; -3; 0; 2; 0" keyTimes="0; 0.7; 0.73; 0.76; 0.79; 0.82; 1" />
        <animate attributeName="opacity" dur="2s" repeatCount="indefinite"
          values="0; 0; 0.9; 0.2; 0.8; 0; 0" keyTimes="0; 0.7; 0.73; 0.76; 0.79; 0.82; 1" />
      </text>

      <text x="250" y="230" text-anchor="middle" fill="#00f2fe">
        BY AALIYAN
        <animate attributeName="dx" dur="2s" repeatCount="indefinite"
          values="0; 0; -4; 3; -2; 0; 0" keyTimes="0; 0.68; 0.71; 0.74; 0.77; 0.8; 1" />
        <animate attributeName="opacity" dur="2s" repeatCount="indefinite"
          values="0; 0; 0.9; 0.4; 0.7; 0; 0" keyTimes="0; 0.68; 0.71; 0.74; 0.77; 0.8; 1" />
      </text>

      <text x="250" y="230" text-anchor="middle">
        BY AALIYAN
        <animate attributeName="fill" dur="2s" repeatCount="indefinite"
          values="#00f2fe; #00f2fe; #000000; #9d4edd; #00f2fe; #000000; #00f2fe; #00f2fe" 
          keyTimes="0; 0.68; 0.71; 0.74; 0.77; 0.8; 0.83; 1" />
        <animate attributeName="dy" dur="2s" repeatCount="indefinite"
          values="0; 0; -1; 2; -2; 0; 0" keyTimes="0; 0.68; 0.72; 0.75; 0.78; 0.82; 1" />
      </text>

    </g>
  </g>
</svg>
